<svg width="96" height="154" viewBox="0 0 96 154" fill="none" xmlns="http://www.w3.org/2000/svg">
<g clip-path="url(#clip0_1176_7837)">
<path d="M47.9976 154C43.9629 154.004 39.9941 152.964 36.4668 150.979L12.0979 137.175C8.43026 135.093 5.3762 132.058 3.2499 128.382C1.1236 124.706 0.00182987 120.523 0 116.262V89.7373C0.00182987 85.4764 1.1236 81.2929 3.2499 77.6172C5.3762 73.9415 8.43026 70.9064 12.0979 68.824L36.462 55.0203C39.991 53.0396 43.9587 52.0005 47.9927 52.0005C52.0266 52.0005 55.9944 53.0396 59.5234 55.0203L83.8985 68.824C87.5668 70.9059 90.6216 73.9408 92.7485 77.6165C94.8755 81.2922 95.9978 85.476 96 89.7373V116.262C95.9977 120.523 94.8752 124.707 92.748 128.383C90.6208 132.058 87.5658 135.093 83.8973 137.175L59.532 150.979C56.0036 152.965 52.0334 154.005 47.9976 154V154ZM47.9976 56.8066C44.7694 56.8031 41.5938 57.6354 38.772 59.2247L14.4043 73.0037C11.4651 74.6709 9.01814 77.1028 7.31579 80.0485C5.61344 82.9942 4.71739 86.3469 4.72011 89.7608V116.285C4.71717 119.699 5.61312 123.052 7.31548 125.998C9.01785 128.944 11.465 131.376 14.4043 133.044L38.7696 146.847C41.5937 148.43 44.768 149.26 47.9951 149.26C51.2223 149.26 54.3966 148.43 57.2207 146.847L81.586 133.044C84.5251 131.376 86.9721 128.944 88.6745 125.999C90.3768 123.053 91.2729 119.7 91.2701 116.287V89.7373C91.2687 86.3274 90.3707 82.9796 88.6686 80.0384C86.9665 77.0972 84.5217 74.669 81.586 73.0037L57.2231 59.2C54.4013 57.6107 51.2257 56.7783 47.9976 56.7819V56.8066Z" fill="#FABD43"/>
<path d="M58.9526 84.9974C61.9192 84.9974 64.324 82.5599 64.324 79.5531C64.324 76.5462 61.9192 74.1087 58.9526 74.1087C55.9861 74.1087 53.5812 76.5462 53.5812 79.5531C53.5812 82.5599 55.9861 84.9974 58.9526 84.9974Z" fill="#FABD43"/>
<path d="M44.8996 101.563H45.3289C48.3 101.353 50.1051 99.0781 52.0127 96.6748C52.4335 96.1433 52.8665 95.5981 53.3312 95.0467L52.9653 96.9011V105.82H65.1949V96.723C65.412 97.2262 65.6206 97.7528 65.8047 98.3079C66.5955 100.745 67.0982 103.268 67.3025 105.825H71.5542C70.8224 97.1359 67.9684 90.6767 63.4715 87.952C62.4775 87.3248 61.3636 86.9184 60.2032 86.7599C59.0428 86.6013 57.8625 86.6942 56.7401 87.0322C55.9894 87.1712 55.2857 87.5008 54.6948 87.9903C52.3847 89.6375 50.3539 91.6541 48.6818 93.9613C47.0962 95.9529 46.079 97.1755 45.0118 97.2559C44.1581 97.3177 42.4505 96.7391 39.1964 93.656C38.84 93.3033 38.3752 93.0848 37.8793 93.0369C37.3834 92.989 36.8863 93.1146 36.4705 93.3926C36.2084 93.5755 35.9901 93.8157 35.8318 94.0954C35.6734 94.3752 35.5791 94.6874 35.5557 95.0091C35.5323 95.3307 35.5804 95.6536 35.6965 95.9539C35.8126 96.2542 35.9938 96.5242 36.2266 96.7441C39.7221 100.067 42.4152 101.575 44.8862 101.575L44.8996 101.563Z" fill="#FABD43"/>
<path d="M76.7707 114.888V121.228C76.7707 121.883 76.5137 122.512 76.0563 122.976C75.5988 123.439 74.9783 123.7 74.3314 123.7H21.6625C21.0156 123.7 20.3951 123.439 19.9376 122.976C19.4802 122.512 19.2232 121.883 19.2232 121.228V114.601C19.2254 112.793 19.936 111.059 21.1986 109.782C22.4613 108.504 24.1728 107.787 25.957 107.787H69.7552C70.6759 107.786 71.5877 107.969 72.4386 108.326C73.2895 108.682 74.0628 109.205 74.7143 109.865C75.3658 110.524 75.8827 111.307 76.2355 112.169C76.5884 113.031 76.7702 113.955 76.7707 114.888Z" fill="#FABD43"/>
<path d="M27.4828 73.8553C26.474 73.8553 25.4752 74.0568 24.5434 74.4483C23.6115 74.8398 22.7649 75.4136 22.052 76.1369C21.3391 76.8602 20.7738 77.7188 20.3884 78.6637C20.0031 79.6085 19.8052 80.6211 19.8062 81.6435C19.8062 88.1411 27.4535 99.7036 27.4828 99.7036C27.512 99.7036 35.1667 88.0398 35.1667 81.6435C35.1667 79.578 34.3571 77.597 32.9161 76.1364C31.4751 74.6758 29.5207 73.8553 27.4828 73.8553V73.8553ZM28.2572 85.9394C27.3538 86.0969 26.4245 85.9588 25.6036 85.5452C24.7828 85.1316 24.1132 84.4639 23.6916 83.6389C23.2701 82.8138 23.1186 81.8742 23.259 80.9561C23.3994 80.038 23.8245 79.1889 24.4727 78.532C25.1208 77.875 25.9585 77.4442 26.8643 77.3018C27.7701 77.1595 28.6972 77.3131 29.5111 77.7404C30.3251 78.1676 30.9838 78.8464 31.3919 79.6783C31.8 80.5103 31.9362 81.4523 31.7809 82.368C31.6297 83.2594 31.2097 84.0814 30.5787 84.7209C29.9477 85.3605 29.1367 85.7862 28.2572 85.9394V85.9394Z" fill="#FABD43"/>
</g>
<path d="M44.2042 12.2592L53 10.5L44.2042 8.79581L42.5 0L40.7408 8.79581L32 10.5L40.7408 12.2592L42.5 21L44.2042 12.2592Z" fill="#FABC43"/>
<path d="M22 50.1054L32.7895 48.0001L22 45.8948L19.8948 35.1053L17.7895 45.8948L7 48.0001L17.7895 50.1054L19.8948 60.8948L22 50.1054Z" fill="#FABC43"/>
<path d="M84.6141 30.6141L95.8421 28.4211L84.6141 26.2281L82.4211 15L80.2281 26.2281L69 28.4211L80.2281 30.6141L82.4211 41.8421L84.6141 30.6141Z" fill="#FABC43"/>
<path d="M70.2457 48.8773L74.7194 48.0001L70.2457 47.1229L69.3685 42.7369L68.4913 47.1229L64.1053 48.0001L68.4913 48.8773L69.3685 53.351L70.2457 48.8773Z" fill="#FABC43"/>
<path d="M32.7895 34.579L37.2631 33.6141L32.7895 32.7369L31.9123 28.2632L31.0351 32.7369L26.4737 33.6141L31.0351 34.579L31.9123 39.0527L32.7895 34.579Z" fill="#FABC43"/>
<path d="M55.3158 34.3158L59.7895 33.4386L55.3158 32.5614L54.4386 28L53.5614 32.5614L49 33.4386L53.5614 34.3158L54.4386 38.7895L55.3158 34.3158Z" fill="#FABC43"/>
<defs>
<clipPath id="clip0_1176_7837">
<rect width="96" height="102" fill="white" transform="translate(0 52)"/>
</clipPath>
</defs>
</svg>
