<svg width="96" height="102" viewBox="0 0 96 102" fill="none" xmlns="http://www.w3.org/2000/svg">
<path d="M47.9976 102C43.9629 102.004 39.9941 100.964 36.4668 98.9788L12.0979 85.1751C8.43026 83.0927 5.3762 80.0576 3.2499 76.3819C1.1236 72.7062 0.00182987 68.5227 0 64.2618V37.7373C0.00182987 33.4764 1.1236 29.2929 3.2499 25.6172C5.3762 21.9415 8.43026 18.9064 12.0979 16.824L36.462 3.02027C39.991 1.03961 43.9587 0.000488281 47.9927 0.000488281C52.0266 0.000488281 55.9944 1.03961 59.5234 3.02027L83.8985 16.824C87.5668 18.9059 90.6216 21.9408 92.7485 25.6165C94.8755 29.2922 95.9978 33.476 96 37.7373V64.2618C95.9977 68.5232 94.8752 72.707 92.748 76.3828C90.6208 80.0585 87.5658 83.0934 83.8973 85.1751L59.532 98.9788C56.0036 100.965 52.0334 102.005 47.9976 102V102ZM47.9976 4.80662C44.7694 4.80307 41.5938 5.6354 38.772 7.22469L14.4043 21.0037C11.4651 22.6709 9.01814 25.1028 7.31579 28.0485C5.61344 30.9942 4.71739 34.3469 4.72011 37.7608V64.2853C4.71717 67.6993 5.61312 71.0523 7.31548 73.9983C9.01785 76.9442 11.465 79.3763 14.4043 81.0436L38.7696 94.8473C41.5937 96.4302 44.768 97.2605 47.9951 97.2605C51.2223 97.2605 54.3966 96.4302 57.2207 94.8473L81.586 81.0436C84.5251 79.3764 86.9721 76.9445 88.6745 73.9988C90.3768 71.0531 91.2729 67.7004 91.2701 64.2865V37.7373C91.2687 34.3274 90.3707 30.9796 88.6686 28.0384C86.9665 25.0972 84.5217 22.669 81.586 21.0037L57.2231 7.19996C54.4013 5.61068 51.2257 4.77835 47.9976 4.7819V4.80662Z" fill="#B79C84"/>
<path d="M58.9526 32.9974C61.9192 32.9974 64.324 30.5599 64.324 27.5531C64.324 24.5462 61.9192 22.1087 58.9526 22.1087C55.9861 22.1087 53.5812 24.5462 53.5812 27.5531C53.5812 30.5599 55.9861 32.9974 58.9526 32.9974Z" fill="#B79C84"/>
<path d="M44.8996 49.5629H45.3289C48.3 49.3527 50.1051 47.0781 52.0127 44.6748C52.4335 44.1433 52.8665 43.5981 53.3312 43.0467L52.9653 44.9011V53.8205H65.1949V44.723C65.412 45.2262 65.6206 45.7528 65.8047 46.3079C66.5955 48.7449 67.0982 51.2684 67.3025 53.8254H71.5542C70.8224 45.1359 67.9684 38.6767 63.4715 35.952C62.4775 35.3248 61.3636 34.9184 60.2032 34.7599C59.0428 34.6013 57.8625 34.6942 56.7401 35.0322C55.9894 35.1712 55.2857 35.5008 54.6948 35.9903C52.3847 37.6375 50.3539 39.6541 48.6818 41.9613C47.0962 43.9529 46.079 45.1755 45.0118 45.2559C44.1581 45.3177 42.4505 44.7391 39.1964 41.656C38.84 41.3033 38.3752 41.0848 37.8793 41.0369C37.3834 40.989 36.8863 41.1146 36.4705 41.3926C36.2084 41.5755 35.9901 41.8157 35.8318 42.0954C35.6734 42.3752 35.5791 42.6874 35.5557 43.0091C35.5323 43.3307 35.5804 43.6536 35.6965 43.9539C35.8126 44.2542 35.9938 44.5242 36.2266 44.7441C39.7221 48.067 42.4152 49.5752 44.8862 49.5752L44.8996 49.5629Z" fill="#B79C84"/>
<path d="M76.7707 62.8881V69.2275C76.7707 69.8832 76.5137 70.5121 76.0563 70.9758C75.5988 71.4395 74.9783 71.7 74.3314 71.7H21.6625C21.0156 71.7 20.3951 71.4395 19.9376 70.9758C19.4802 70.5121 19.2232 69.8832 19.2232 69.2275V62.6013C19.2254 60.7929 19.936 59.0594 21.1986 57.7816C22.4613 56.5039 24.1728 55.7866 25.957 55.7872H69.7552C70.6759 55.7864 71.5877 55.9695 72.4386 56.3259C73.2895 56.6824 74.0628 57.2052 74.7143 57.8646C75.3658 58.524 75.8827 59.3071 76.2355 60.169C76.5884 61.031 76.7702 61.9549 76.7707 62.8881Z" fill="#B79C84"/>
<path d="M27.4828 21.8553C26.474 21.8553 25.4752 22.0568 24.5434 22.4483C23.6115 22.8398 22.7649 23.4136 22.052 24.1369C21.3391 24.8602 20.7738 25.7188 20.3884 26.6637C20.0031 27.6085 19.8052 28.6211 19.8062 29.6435C19.8062 36.1411 27.4535 47.7036 27.4828 47.7036C27.512 47.7036 35.1667 36.0398 35.1667 29.6435C35.1667 27.578 34.3571 25.597 32.9161 24.1364C31.4751 22.6758 29.5207 21.8553 27.4828 21.8553V21.8553ZM28.2572 33.9394C27.3538 34.0969 26.4245 33.9588 25.6036 33.5452C24.7828 33.1316 24.1132 32.4639 23.6916 31.6389C23.2701 30.8138 23.1186 29.8742 23.259 28.9561C23.3994 28.038 23.8245 27.1889 24.4727 26.532C25.1208 25.875 25.9585 25.4442 26.8643 25.3018C27.7701 25.1595 28.6972 25.3131 29.5111 25.7404C30.3251 26.1676 30.9838 26.8464 31.3919 27.6783C31.8 28.5103 31.9362 29.4523 31.7809 30.368C31.6297 31.2594 31.2097 32.0814 30.5787 32.7209C29.9477 33.3605 29.1367 33.7862 28.2572 33.9394V33.9394Z" fill="#B79C84"/>
</svg>
