<svg width="96" height="133" viewBox="0 0 96 133" fill="none" xmlns="http://www.w3.org/2000/svg">
<g clip-path="url(#clip0_1176_7838)">
<path d="M47.9976 133C43.9629 133.004 39.9941 131.964 36.4668 129.979L12.0979 116.175C8.43026 114.093 5.3762 111.058 3.2499 107.382C1.1236 103.706 0.00182892 99.5227 -9.53674e-07 95.2618V68.7373C0.00182892 64.4764 1.1236 60.2929 3.2499 56.6172C5.3762 52.9415 8.43026 49.9064 12.0979 47.824L36.462 34.0203C39.991 32.0396 43.9587 31.0005 47.9927 31.0005C52.0266 31.0005 55.9944 32.0396 59.5234 34.0203L83.8985 47.824C87.5668 49.9059 90.6216 52.9408 92.7485 56.6165C94.8755 60.2922 95.9978 64.476 96 68.7373V95.2618C95.9977 99.5232 94.8752 103.707 92.748 107.383C90.6208 111.058 87.5658 114.093 83.8972 116.175L59.532 129.979C56.0036 131.965 52.0334 133.005 47.9976 133V133ZM47.9976 35.8066C44.7694 35.8031 41.5938 36.6354 38.772 38.2247L14.4043 52.0037C11.4651 53.6709 9.01814 56.1028 7.31579 59.0485C5.61343 61.9942 4.71739 65.3469 4.72011 68.7608V95.2853C4.71717 98.6993 5.61312 102.052 7.31548 104.998C9.01784 107.944 11.465 110.376 14.4043 112.044L38.7696 125.847C41.5937 127.43 44.768 128.26 47.9951 128.26C51.2222 128.26 54.3966 127.43 57.2207 125.847L81.586 112.044C84.5251 110.376 86.9721 107.944 88.6745 104.999C90.3768 102.053 91.2729 98.7004 91.2701 95.2865V68.7373C91.2687 65.3274 90.3707 61.9796 88.6686 59.0384C86.9665 56.0972 84.5217 53.669 81.586 52.0037L57.2231 38.2C54.4013 36.6107 51.2257 35.7783 47.9976 35.7819V35.8066Z" fill="#BCBCBB"/>
<path d="M58.9526 63.9974C61.9192 63.9974 64.324 61.5599 64.324 58.5531C64.324 55.5462 61.9192 53.1087 58.9526 53.1087C55.9861 53.1087 53.5812 55.5462 53.5812 58.5531C53.5812 61.5599 55.9861 63.9974 58.9526 63.9974Z" fill="#BCBCBB"/>
<path d="M44.8996 80.5629H45.3289C48.3 80.3527 50.1051 78.0781 52.0127 75.6748C52.4335 75.1433 52.8665 74.5981 53.3312 74.0467L52.9653 75.9011V84.8205H65.1949V75.723C65.412 76.2262 65.6206 76.7528 65.8047 77.3079C66.5955 79.7449 67.0982 82.2684 67.3025 84.8254H71.5542C70.8224 76.1359 67.9684 69.6767 63.4715 66.952C62.4775 66.3248 61.3636 65.9184 60.2032 65.7599C59.0428 65.6013 57.8625 65.6942 56.7401 66.0322C55.9894 66.1712 55.2857 66.5008 54.6948 66.9903C52.3847 68.6375 50.3539 70.6541 48.6818 72.9613C47.0962 74.9529 46.079 76.1755 45.0118 76.2559C44.1581 76.3177 42.4505 75.7391 39.1964 72.656C38.84 72.3033 38.3752 72.0848 37.8793 72.0369C37.3834 71.989 36.8863 72.1146 36.4705 72.3926C36.2084 72.5755 35.9901 72.8157 35.8318 73.0954C35.6734 73.3752 35.5791 73.6874 35.5557 74.0091C35.5323 74.3307 35.5804 74.6536 35.6965 74.9539C35.8126 75.2542 35.9938 75.5242 36.2266 75.7441C39.7221 79.067 42.4152 80.5752 44.8862 80.5752L44.8996 80.5629Z" fill="#BCBCBB"/>
<path d="M76.7707 93.8881V100.228C76.7707 100.883 76.5137 101.512 76.0563 101.976C75.5988 102.439 74.9783 102.7 74.3314 102.7H21.6625C21.0156 102.7 20.3951 102.439 19.9376 101.976C19.4802 101.512 19.2232 100.883 19.2232 100.228V93.6013C19.2254 91.7929 19.936 90.0594 21.1986 88.7816C22.4613 87.5039 24.1728 86.7866 25.957 86.7872H69.7552C70.6759 86.7864 71.5877 86.9695 72.4386 87.3259C73.2895 87.6824 74.0628 88.2052 74.7143 88.8646C75.3658 89.524 75.8827 90.3071 76.2355 91.169C76.5884 92.031 76.7702 92.9549 76.7707 93.8881Z" fill="#BCBCBB"/>
<path d="M27.4828 52.8553C26.474 52.8553 25.4752 53.0568 24.5434 53.4483C23.6115 53.8398 22.7649 54.4136 22.052 55.1369C21.3391 55.8602 20.7738 56.7188 20.3884 57.6637C20.0031 58.6085 19.8052 59.6211 19.8062 60.6435C19.8062 67.1411 27.4535 78.7036 27.4828 78.7036C27.512 78.7036 35.1667 67.0398 35.1667 60.6435C35.1667 58.578 34.3571 56.597 32.9161 55.1364C31.4751 53.6758 29.5207 52.8553 27.4828 52.8553V52.8553ZM28.2572 64.9394C27.3538 65.0969 26.4245 64.9588 25.6036 64.5452C24.7828 64.1316 24.1132 63.4639 23.6916 62.6389C23.2701 61.8138 23.1186 60.8742 23.259 59.9561C23.3994 59.038 23.8245 58.1889 24.4726 57.532C25.1208 56.875 25.9585 56.4442 26.8643 56.3018C27.7701 56.1595 28.6972 56.3131 29.5111 56.7404C30.3251 57.1676 30.9838 57.8464 31.3919 58.6783C31.8 59.5103 31.9362 60.4523 31.7809 61.368C31.6297 62.2594 31.2097 63.0814 30.5787 63.7209C29.9477 64.3605 29.1367 64.7862 28.2572 64.9394V64.9394Z" fill="#BCBCBB"/>
</g>
<path d="M27.4168 11.7046L19 10.0607L27.4168 8.4168L29.0607 0L30.7046 8.4168L39.1214 10.0607L30.7046 11.7046L29.0607 20.1214L27.4168 11.7046Z" fill="#BCBCBB"/>
<path d="M38.1876 25.3951L34.8341 24.7375L38.1876 24.0799L38.8452 20.7921L39.5028 24.0799L42.7906 24.7375L39.5028 25.3951L38.8452 28.7486L38.1876 25.3951Z" fill="#BCBCBB"/>
<path d="M66.2656 14.6768L62.912 13.9535L66.2656 13.2959L66.9231 9.94238L67.5807 13.2959L71 13.9535L67.5807 14.6768L66.9231 18.0304L66.2656 14.6768Z" fill="#BCBCBB"/>
<path d="M49.3794 14.4795L46.0258 13.8219L49.3794 13.1644L50.0369 9.74506L50.6945 13.1644L54.1138 13.8219L50.6945 14.4795L50.0369 17.8331L49.3794 14.4795Z" fill="#BCBCBB"/>
<defs>
<clipPath id="clip0_1176_7838">
<rect width="96" height="102" fill="white" transform="translate(0 31)"/>
</clipPath>
</defs>
</svg>
