<svg width="100%" height="100%" viewBox="0 0 63 63" fill="none" xmlns="http://www.w3.org/2000/svg">
<g clip-path="url(#clip0_10_73)">
<path d="M31.5012 62.5148C48.6301 62.5148 62.5159 48.629 62.5159 31.5C62.5159 14.371 48.6301 0.485229 31.5012 0.485229C14.3722 0.485229 0.486374 14.371 0.486374 31.5C0.486374 48.629 14.3722 62.5148 31.5012 62.5148Z" fill="url(#paint0_linear_10_73)"/>
<path d="M31.4991 63C24.2114 63.0002 17.1491 60.4734 11.5156 55.8503C5.88199 51.2271 2.02571 44.7936 0.603806 37.646C-0.8181 30.4984 0.282335 23.0788 3.71761 16.6516C7.15288 10.2243 12.7104 5.18704 19.4433 2.39803C26.1762 -0.390982 33.6679 -0.759158 40.6418 1.35622C47.6158 3.47161 53.6405 7.93967 57.6894 13.9991C61.7384 20.0585 63.561 27.3344 62.8468 34.587C62.1326 41.8397 58.9257 48.6203 53.7726 53.7735C50.8545 56.7077 47.3833 59.034 43.56 60.6177C39.7368 62.2015 35.6374 63.0112 31.4991 63ZM31.4991 0.971659C24.4362 0.971525 17.5918 3.42036 12.132 7.90092C6.67221 12.3815 2.93491 18.6165 1.55688 25.5437C0.178856 32.4709 1.24538 39.6615 4.57471 45.8905C7.90403 52.1195 13.2902 57.0014 19.8154 59.7043C26.3406 62.4073 33.6012 62.7641 40.36 60.714C47.1188 58.6638 52.9577 54.3336 56.8817 48.461C60.8057 42.5885 62.5721 35.537 61.8799 28.5081C61.1877 21.4792 58.0798 14.9078 53.0856 9.91349C50.2578 7.06914 46.8938 4.81395 43.1884 3.27846C39.4831 1.74297 35.51 0.957679 31.4991 0.968058V0.971659Z" fill="black"/>
<path d="M19.1351 55.3997C18.4613 55.0767 17.7947 54.7344 17.1497 54.3536C16.9888 54.2587 16.8255 54.1663 16.6693 54.0666L16.1889 53.7651L15.9487 53.6138L15.7157 53.4552L15.2509 53.137C15.0971 53.0289 14.947 52.916 14.7957 52.8055C14.6444 52.695 14.4906 52.5857 14.3453 52.4656C14.0522 52.2254 13.7532 52.002 13.4697 51.7533L13.0409 51.387L12.623 51.0063L12.414 50.8153C12.3443 50.7517 12.2783 50.6844 12.211 50.6195L11.8063 50.2244C11.6705 50.0935 11.5444 49.953 11.4135 49.8172C11.2826 49.6815 11.1505 49.5458 11.0268 49.4041C10.7782 49.1206 10.5199 48.8444 10.2833 48.5501L9.92301 48.1142L9.5759 47.6662C9.33569 47.3707 9.1243 47.0596 8.90211 46.7534C8.78921 46.602 8.68832 46.4411 8.58143 46.285C8.47454 46.1288 8.36764 45.9715 8.26795 45.8117L7.97009 45.3313L7.82117 45.0911L7.68064 44.8449L7.39839 44.3513C7.30591 44.1855 7.22065 44.0162 7.13057 43.8492L6.99845 43.5982C6.95361 43.5181 6.91078 43.4337 6.86994 43.3448L6.62252 42.8331C5.96893 41.4586 5.438 40.029 5.03593 38.561C4.92663 38.2007 4.84496 37.8247 4.75368 37.456C4.70564 37.2711 4.672 37.0849 4.63357 36.8987L4.51948 36.339L4.42459 35.777C4.39336 35.5896 4.35853 35.4022 4.33691 35.2137C4.28887 34.8365 4.23122 34.4606 4.2 34.0799L4.14595 33.5118C4.13154 33.322 4.12192 33.1322 4.11111 32.9425C4.1003 32.7527 4.08469 32.5629 4.08229 32.372L4.07028 31.8015L4.06427 31.5156V31.2298L4.07629 30.6593L4.0883 30.0888L4.12913 29.5195L4.17117 28.9502C4.17958 28.8553 4.18438 28.7604 4.19399 28.6655L4.22882 28.3821C4.27807 28.0049 4.3201 27.6254 4.37535 27.2483L4.57472 26.1229L4.59994 25.9824C4.60955 25.9355 4.62036 25.8899 4.63117 25.8431L4.69483 25.5644L4.82215 25.0071C5.18388 23.5266 5.6659 22.0781 6.26341 20.6761L6.74382 19.6372C6.91557 19.2973 7.09333 18.9598 7.26749 18.6211C7.31192 18.537 7.35275 18.4506 7.40079 18.3689L7.54372 18.1215L7.83077 17.6278L7.9737 17.3804C8.01934 17.2976 8.07099 17.2171 8.12383 17.1402L8.4361 16.6598C9.26915 15.3862 10.2064 14.1838 11.2382 13.0651L12.0333 12.2483L12.1329 12.1462L12.2374 12.049L12.4452 11.8544L12.862 11.4665L13.071 11.2731C13.1406 11.2094 13.2151 11.153 13.2872 11.0881L13.7231 10.7218C13.8697 10.6017 14.0114 10.4744 14.1603 10.3615L14.6131 10.0156L15.0659 9.67087C15.1404 9.61202 15.2184 9.55918 15.2965 9.50513L15.5307 9.34419L15.9991 9.0211L16.2333 8.86017L16.4735 8.71004L16.954 8.40977L17.1942 8.25964C17.2747 8.2092 17.3539 8.15875 17.4344 8.11431L18.4289 7.56663C19.7716 6.87155 21.1691 6.28788 22.6073 5.8215L23.1478 5.65335L23.418 5.56928L23.6919 5.49842C24.0522 5.40594 24.4209 5.30745 24.7872 5.22097L25.8934 4.99518L26.0315 4.96635L26.1708 4.94474L26.4495 4.90269L27.0068 4.82102C27.3767 4.75857 27.7526 4.73335 28.125 4.70092L28.6846 4.64687C28.872 4.63366 29.0594 4.62765 29.2467 4.61925L29.8076 4.59643L30.0875 4.58562H30.3685L31.4903 4.60003L30.3721 4.67089L30.0935 4.68891L29.8148 4.72013L29.26 4.78259C29.075 4.80421 28.89 4.81983 28.7051 4.84505L28.1538 4.93272C27.7875 4.99278 27.4187 5.04082 27.056 5.1249L26.5107 5.245L26.2381 5.30145L26.1024 5.32907L25.9679 5.3639L24.8869 5.64135C24.5266 5.74464 24.1795 5.85993 23.8252 5.96803L23.561 6.0509L23.3003 6.14699L22.7791 6.33795C20.0079 7.36011 17.4245 8.83279 15.1332 10.6966L14.7044 11.0437C14.5639 11.1638 14.4293 11.2839 14.2912 11.404L13.8805 11.7703C13.8132 11.8316 13.7424 11.8904 13.6763 11.9553L13.4793 12.1486L13.0854 12.533L12.8884 12.7252L12.7899 12.8212L12.6962 12.9221L11.9456 13.7268C10.9737 14.8243 10.0901 15.997 9.30326 17.2339C9.10869 17.5438 8.90692 17.85 8.73277 18.1719L8.46134 18.6523L8.32561 18.8926C8.27997 18.9718 8.24154 19.0547 8.1995 19.1328C8.03496 19.4594 7.86682 19.7849 7.70588 20.1128L7.25788 21.1145C6.68781 22.462 6.2275 23.8533 5.88146 25.275L5.76137 25.8094L5.69891 26.0761C5.6893 26.1205 5.6773 26.1649 5.66889 26.2094L5.64487 26.3439L5.45029 27.4248C5.39745 27.7851 5.35541 28.1455 5.30736 28.513L5.27254 28.7856C5.26293 28.8769 5.25812 28.9682 5.24971 29.0595L5.20648 29.6059L5.16203 30.1536L5.14523 30.7025L5.1284 31.2514L5.1212 31.5252V31.8003L5.1284 32.3492C5.1284 32.5317 5.14403 32.7095 5.15124 32.898C5.15845 33.0866 5.16805 33.2583 5.17886 33.4469L5.2233 33.9946C5.24732 34.3549 5.29775 34.7236 5.34339 35.0863C5.36141 35.2689 5.39385 35.4467 5.42027 35.6304L5.50315 36.1733L5.60523 36.7126C5.64126 36.8927 5.66889 37.0729 5.71212 37.2518C5.7938 37.6122 5.86466 37.9725 5.96314 38.322L6.10125 38.854L6.2574 39.3813C6.35588 39.7344 6.47959 40.0803 6.59369 40.4286C6.64894 40.604 6.7138 40.7745 6.77866 40.9475L6.96962 41.4639L7.1786 41.9732C7.24826 42.1437 7.31552 42.3131 7.39359 42.48C8.58634 45.1833 10.2087 47.6756 12.1978 49.8605C13.1972 50.9575 14.2815 51.9739 15.4406 52.9003L15.8802 53.2427L16.1 53.4132L16.3258 53.5765L16.7774 53.9044C16.9287 54.0125 17.0849 54.1134 17.2386 54.2191L17.4692 54.3764L17.5893 54.4557L17.7094 54.5302L18.1815 54.8292C18.3376 54.9313 18.4997 55.0238 18.6619 55.1187L19.1351 55.3997Z" fill="black"/>
<path d="M43.8648 7.54865C47.0823 8.97864 49.9569 11.0798 52.2962 13.7112C54.6642 16.3576 56.4614 19.4636 57.5756 22.8354C58.6899 26.2073 59.0972 29.7726 58.7723 33.3088C58.6954 34.187 58.5703 35.0603 58.3975 35.9247C58.2272 36.7872 58.0124 37.6403 57.7538 38.4806C57.2361 40.1536 56.5361 41.7647 55.6664 43.2848C56.3222 41.684 56.8445 40.0317 57.2277 38.3448C57.4151 37.5057 57.5656 36.661 57.6793 35.8106C57.7045 35.598 57.737 35.3866 57.7574 35.1728L57.8223 34.5339L57.8691 33.8937C57.8847 33.6812 57.8919 33.4674 57.9039 33.2536C58.2269 26.3702 55.9935 19.6105 51.6332 14.2745C51.3678 13.9394 51.0843 13.62 50.8045 13.2957C50.6616 13.1359 50.5151 12.981 50.3709 12.8225L50.1535 12.5823L49.9289 12.3529C49.3356 11.7343 48.7039 11.1518 48.0553 10.5873C47.4067 10.0228 46.7221 9.49675 46.0279 8.9827L45.4983 8.60797C45.3229 8.48186 45.1379 8.36776 44.959 8.24766C44.6059 8.00745 44.23 7.78886 43.8648 7.54865Z" fill="black"/>
<path d="M25.9955 57.9892C28.1321 58.2323 30.286 58.2858 32.4319 58.1489C34.5525 58.0053 36.6528 57.6456 38.7003 57.0752C40.7474 56.5028 42.7315 55.7254 44.6226 54.7548C46.5326 53.7659 48.3524 52.6117 50.061 51.3053C48.6161 52.9561 46.9252 54.374 45.0478 55.509C41.2574 57.8215 36.8984 59.0341 32.4584 59.0113C30.2643 59.0055 28.0843 58.6608 25.9955 57.9892Z" fill="black"/>
<path d="M7.81284 27.2135C7.90772 26.5493 8.02182 25.8923 8.17316 25.2317C8.21159 25.0684 8.24763 24.9038 8.29327 24.7405L8.42417 24.2529L8.49024 24.0127L8.56349 23.7724L8.71122 23.292C8.76287 23.1311 8.81933 22.9725 8.87338 22.8116C8.92743 22.6507 8.98027 22.4909 9.04393 22.3312C9.16403 22.0165 9.28414 21.6994 9.41986 21.3896L9.61923 20.9235L9.83301 20.4635L9.93991 20.2329C9.97594 20.1561 10.0156 20.0816 10.054 20.0059L10.2834 19.5531C10.9211 18.3537 11.6567 17.2088 12.4825 16.1301C12.5822 15.992 12.6927 15.8635 12.7984 15.729C12.9041 15.5945 13.0098 15.4624 13.1203 15.3326L13.4554 14.9471L13.6223 14.7549L13.7965 14.5676L14.1448 14.1941C14.2649 14.0739 14.385 13.9538 14.5051 13.8337C14.6252 13.7136 14.7453 13.5935 14.8654 13.4734L15.239 13.1239C16.2439 12.1958 17.3291 11.3586 18.4818 10.6221C18.7652 10.4312 19.0631 10.2618 19.3549 10.0841C19.5003 9.99398 19.6516 9.9147 19.8018 9.83063L20.2509 9.58442L20.7085 9.35381C20.8611 9.27695 21.0124 9.19767 21.1697 9.12801C21.4808 8.98629 21.7883 8.83616 22.1066 8.70885L22.5798 8.51067C22.7383 8.44702 22.8993 8.39057 23.0602 8.32931C23.2211 8.26806 23.3797 8.20921 23.5406 8.15276L24.027 7.99062L24.2673 7.90895L24.5135 7.83688L25.0071 7.69516L25.5007 7.55344L26.0016 7.43333L26.5024 7.31323C26.5865 7.29521 26.6694 7.27359 26.7534 7.25677L27.0069 7.21233C27.3444 7.15348 27.6807 7.09223 28.0193 7.03578L29.039 6.90727C29.2084 6.88205 29.3801 6.87604 29.5507 6.86163L30.0635 6.82319C31.4326 6.74193 32.806 6.77287 34.1699 6.91568L35.1896 7.0478C35.5271 7.10545 35.8634 7.16789 36.2009 7.22795C36.285 7.24476 36.3703 7.25557 36.4531 7.27599L36.7042 7.33365L37.205 7.45375C37.3707 7.49458 37.5401 7.52581 37.7034 7.57385L38.1971 7.71438C39.5127 8.09253 40.7947 8.57943 42.0296 9.17005L42.9424 9.63606L43.0565 9.69371L43.1682 9.75737L43.3904 9.88468L43.8348 10.1405L44.0558 10.269C44.1291 10.3123 44.1999 10.3603 44.272 10.4059L44.702 10.6834C44.8449 10.7771 44.9902 10.8659 45.1307 10.9632L45.5475 11.2599L45.9631 11.5577C46.1024 11.6562 46.2321 11.7667 46.3678 11.8712L46.769 12.1883L46.9696 12.3468L47.1629 12.515L47.5485 12.8501L47.7406 13.0182C47.8043 13.0747 47.8691 13.1287 47.9304 13.1888L48.6642 13.8986C49.6152 14.8689 50.4849 15.9158 51.2645 17.0285L51.5504 17.4477L51.6933 17.6579L51.8254 17.8741C52.0008 18.1635 52.1857 18.4494 52.3515 18.7412L52.8319 19.6312L52.8919 19.7417L52.9472 19.8618L53.0565 20.09L53.2739 20.5476C53.4252 20.8491 53.5453 21.165 53.6762 21.4748L53.8696 21.9408C53.9296 22.0982 53.9897 22.2579 54.0402 22.4213L54.2059 22.9017L54.2888 23.1419L54.3596 23.3821L54.6407 24.3429L54.2804 23.4049L54.1903 23.1707L54.0894 22.9413L53.8864 22.4825C53.818 22.33 53.7555 22.1762 53.6846 22.0249L53.4624 21.5769C53.3123 21.2791 53.173 20.9764 53.0024 20.6893L52.7622 20.2534L52.6421 20.036L52.5821 19.9267L52.516 19.821L51.99 18.9742C51.8062 18.6968 51.6128 18.4266 51.4255 18.1539L51.2837 17.9497L51.1324 17.7528L50.8297 17.3588C49.2159 15.2618 47.2682 13.4444 45.0647 11.9793L44.6539 11.7055C44.5158 11.6166 44.3729 11.5349 44.2324 11.4497L43.8096 11.195C43.7387 11.153 43.6691 11.1086 43.597 11.0749L43.3796 10.9548L42.946 10.7146L42.7298 10.5945L42.6217 10.5357L42.51 10.4816L41.6225 10.0528C40.4258 9.51344 39.1885 9.06927 37.922 8.72446C37.6049 8.64039 37.2903 8.54911 36.9684 8.48425L36.488 8.37856L36.2478 8.32571C36.1673 8.30769 36.0856 8.29689 36.0075 8.28248C35.6845 8.22843 35.3614 8.17078 35.0383 8.11913L34.063 7.99903C32.7597 7.86821 31.4479 7.84291 30.1404 7.92336L29.6504 7.95819C29.487 7.9714 29.3237 7.97621 29.1616 8.00023L28.1863 8.12033C27.8632 8.17078 27.5413 8.23083 27.2183 8.28608L26.978 8.32811C26.8976 8.34372 26.8183 8.36415 26.7378 8.38097L26.2574 8.48906L25.777 8.59595L25.3038 8.72686L24.8306 8.85778L24.5903 8.92384L24.3561 8.99951L23.8889 9.15084C23.7328 9.20008 23.5803 9.26134 23.4253 9.31538L22.9629 9.48353L22.5065 9.66609C22.2003 9.7862 21.906 9.92191 21.6021 10.0528C21.4508 10.1165 21.3055 10.1909 21.1577 10.2618L20.7145 10.4756L20.2798 10.705C20.1356 10.7831 19.9879 10.8551 19.8462 10.938C19.5627 11.1025 19.2733 11.2587 18.9958 11.4352L18.5767 11.6935L18.1671 11.9661C17.8909 12.1439 17.6279 12.3408 17.3588 12.5306C17.2231 12.6231 17.0946 12.7264 16.9637 12.8249L16.5721 13.1239L16.1902 13.4362C16.0629 13.5407 15.9344 13.644 15.8131 13.7545C13.812 15.4871 12.1034 17.5311 10.753 19.8078C10.0747 20.9514 9.48712 22.1465 8.99587 23.3821L8.81812 23.8493L8.72924 24.0835L8.64758 24.3237L8.48544 24.7969C8.43259 24.9555 8.38694 25.1164 8.3365 25.2774C8.23201 25.5956 8.14674 25.9187 8.05786 26.2382C8.01102 26.3992 7.97378 26.5625 7.93775 26.7246L7.81284 27.2135Z" fill="black"/>
<path d="M55.3913 35.7265C55.0404 38.8715 54.0137 41.9033 52.3814 44.6143C50.7441 47.3569 48.5557 49.7301 45.9547 51.584C43.3537 53.4379 40.3965 54.7323 37.2698 55.3854C36.4948 55.5486 35.7113 55.6689 34.9229 55.7457C34.1369 55.8267 33.3471 55.8668 32.5569 55.8658C31.7697 55.8618 30.9834 55.8141 30.2016 55.7229L29.9098 55.688C29.8125 55.676 29.7152 55.6604 29.6179 55.646C29.4245 55.616 29.23 55.5932 29.0366 55.5559C28.8432 55.5187 28.6511 55.4875 28.4601 55.4466C28.2691 55.4058 28.0781 55.3637 27.8872 55.3265C28.0817 55.3385 28.2763 55.3517 28.4709 55.3662C28.6654 55.3794 28.86 55.3854 29.0546 55.395C29.2492 55.4046 29.4437 55.4094 29.6371 55.4154C29.7344 55.4154 29.8305 55.4214 29.9278 55.4226H30.2184C30.9931 55.4226 31.7666 55.3962 32.5352 55.3289C33.3039 55.2617 34.0666 55.1644 34.8232 55.0347C35.0118 54.9998 35.2016 54.9698 35.389 54.9302L35.9522 54.8101L36.5119 54.6791C36.6981 54.6359 36.8831 54.5843 37.068 54.5374C40.0248 53.7555 42.8174 52.4497 45.3132 50.682C47.8022 48.905 49.9487 46.6917 51.6488 44.1495C53.3651 41.5745 54.6307 38.7262 55.3913 35.7265Z" fill="black"/>
<path d="M7.41166 33.782C7.61584 34.7429 7.83683 35.6809 8.10466 36.6057C8.3725 37.5305 8.67517 38.4397 9.02467 39.3285C9.71624 41.1012 10.5833 42.8003 11.6129 44.4005C12.6445 45.9999 13.8313 47.4936 15.156 48.86C15.819 49.547 16.5164 50.2036 17.2483 50.8297C17.9773 51.4591 18.7412 52.0536 19.5303 52.6397C18.6257 52.2572 17.7557 51.7975 16.93 51.2657C16.0986 50.7327 15.3078 50.139 14.5639 49.4894C11.5583 46.8589 9.35601 43.4335 8.21035 39.6071C7.63795 37.7198 7.36838 35.7537 7.41166 33.782Z" fill="black"/>
<path d="M45.6303 35.5523V27.4476C45.6298 26.2761 45.317 25.1258 44.7242 24.1153C44.1315 23.1048 43.2801 22.2704 42.2578 21.6982L34.7128 17.4813C33.7294 16.9365 32.6236 16.6507 31.4994 16.6507C30.3751 16.6507 29.2693 16.9365 28.2859 17.4813L20.7409 21.6982C19.7184 22.2703 18.8668 23.1045 18.2738 24.1151C17.6808 25.1256 17.3679 26.276 17.3672 27.4476V35.5523C17.3679 36.724 17.6808 37.8744 18.2738 38.8849C18.8668 39.8955 19.7184 40.7297 20.7409 41.3018L28.2859 45.5187C29.2693 46.0637 30.3751 46.3497 31.4994 46.3497C32.6236 46.3497 33.7294 46.0637 34.7128 45.5187L42.2578 41.3018C43.2801 40.7296 44.1315 39.8952 44.7242 38.8847C45.317 37.8742 45.6298 36.7239 45.6303 35.5523Z" fill="url(#paint1_linear_10_73)"/>
<path d="M45.5835 35.5475L45.5907 32.665L45.5847 29.7825L45.5751 28.3412C45.5679 27.8608 45.5751 27.3804 45.5403 26.9072L45.5006 26.5529L45.437 26.2022C45.4272 26.1439 45.4143 26.0862 45.3985 26.0292L45.3553 25.8563C45.3397 25.7986 45.3289 25.7361 45.3097 25.6845L45.2544 25.5151C45.1112 25.0636 44.9174 24.6297 44.6767 24.2216C44.4367 23.8162 44.1549 23.437 43.836 23.0902C43.5149 22.7456 43.1563 22.4378 42.767 22.1726C42.5761 22.0345 42.3707 21.9228 42.1665 21.8039L41.5336 21.4616L40.2676 20.7758L37.737 19.4006L35.2148 18.0182L34.5843 17.6711C34.3814 17.5606 34.1725 17.4615 33.9585 17.3744C33.5311 17.1993 33.0856 17.072 32.6302 16.9949C31.7181 16.8389 30.783 16.8824 29.8894 17.1222C29.4456 17.242 29.0163 17.4099 28.609 17.623C28.4109 17.7287 28.1959 17.8548 27.9893 17.9713L27.3635 18.3317L24.8582 19.7525L22.3527 21.1734L21.1 21.8832L20.9439 21.972C20.8911 22.0021 20.8466 22.0321 20.7962 22.0609C20.7001 22.1222 20.5992 22.181 20.5079 22.2423L20.2293 22.4393C20.1404 22.5089 20.0527 22.5822 19.9639 22.6543C19.6181 22.9494 19.3041 23.2799 19.027 23.6403C18.2008 24.7342 17.7554 26.0684 17.7587 27.4392L17.7996 33.2043L17.8116 34.6455L17.8176 35.3662V35.5463L17.8248 35.7145L17.832 35.8814V35.9655L17.8416 36.0484C17.9243 36.9406 18.2001 37.8041 18.6499 38.579C18.8749 38.9634 19.1394 39.3232 19.439 39.6527C19.7403 39.98 20.0766 40.2732 20.4419 40.5271C20.6208 40.6592 20.813 40.7673 21.0064 40.8874L21.6357 41.2369L22.8932 41.9371L25.4046 43.346L27.9112 44.7644L28.5358 45.1247L28.8312 45.2809C28.9309 45.3313 29.0342 45.3734 29.1351 45.4202C30.3827 45.9541 31.7693 46.0716 33.089 45.7553C33.5286 45.649 33.9554 45.4956 34.3621 45.2977L34.5146 45.2232C34.5663 45.198 34.6203 45.168 34.6732 45.1404L34.9914 44.9722L35.628 44.6359L38.179 43.2967L40.7288 41.9564L42.002 41.2826C42.1089 41.2261 42.2146 41.1709 42.3155 41.112C42.4163 41.0532 42.522 40.9991 42.6193 40.9331L42.9124 40.7373C43.0072 40.6664 43.0985 40.5932 43.1922 40.5211C43.5586 40.2225 43.8927 39.8864 44.1891 39.5182C44.4847 39.1474 44.7377 38.7445 44.9433 38.3172C45.3595 37.4529 45.5781 36.5068 45.5835 35.5475ZM45.6796 35.5475C45.6817 36.5222 45.4742 37.4858 45.0711 38.3732C44.6681 39.2605 44.0789 40.0508 43.3435 40.6905C43.2487 40.7685 43.1562 40.8478 43.0613 40.9235L42.7646 41.1408C42.6662 41.2129 42.5592 41.2742 42.4572 41.3414C42.3551 41.4087 42.2494 41.4699 42.1461 41.53L40.9054 42.2602L38.4276 43.7303L35.9511 45.2016L35.3313 45.5619L35.0214 45.7445C34.9686 45.7745 34.9194 45.8057 34.8641 45.8358L34.6972 45.927C34.2515 46.1724 33.7792 46.3659 33.2895 46.5035C32.798 46.6392 32.2936 46.7225 31.7846 46.7522C31.2736 46.7843 30.7606 46.7577 30.2557 46.6729C29.7489 46.5881 29.2528 46.4488 28.776 46.2573C28.6559 46.2057 28.5358 46.1588 28.4229 46.1036L28.0782 45.9294L27.444 45.5835L24.9218 44.1915L22.4056 42.7911L21.1505 42.0861L20.5235 41.733C20.3062 41.602 20.0792 41.4723 19.8726 41.3186L19.714 41.2069C19.6624 41.1673 19.6131 41.1264 19.5627 41.0868L19.4126 40.9667L19.3381 40.9054L19.2672 40.8394C19.1736 40.7517 19.0775 40.664 18.985 40.5751L18.7208 40.2929C18.3787 39.9078 18.078 39.488 17.8236 39.0402C17.3211 38.1401 17.0211 37.1412 16.9444 36.1132L16.936 36.0171V35.9211V35.7289V35.5367V35.3566L16.942 34.6359L16.954 33.1947L16.9961 27.4296C17.0097 25.8961 17.5256 24.4094 18.4649 23.1971C18.7781 22.8009 19.132 22.4386 19.5207 22.1162C19.6204 22.0381 19.7176 21.9576 19.8173 21.876L20.1296 21.6598C20.2329 21.5877 20.3446 21.5289 20.4527 21.4628C20.5067 21.4316 20.562 21.3967 20.6148 21.3679L20.7722 21.2814L22.0333 20.5872L24.5555 19.1976L27.0777 17.808L27.7082 17.4609L28.0229 17.2867L28.1815 17.2003L28.3472 17.1126C29.696 16.4289 31.2322 16.2078 32.719 16.4832C33.2098 16.5727 33.6891 16.716 34.1483 16.9108C34.3777 17.0077 34.6015 17.1176 34.8185 17.2399L35.4454 17.6002L37.946 19.0271L40.443 20.4611L41.6909 21.1818L42.3142 21.5421C42.522 21.6706 42.7346 21.7955 42.9292 21.9444C43.3249 22.2315 43.6875 22.5619 44.0101 22.9293C44.3313 23.2968 44.6131 23.6969 44.8509 24.1231C45.3228 24.9771 45.6039 25.9233 45.6748 26.8964C45.706 27.3768 45.688 27.8572 45.688 28.3376L45.6784 29.7789L45.6724 32.6614L45.6796 35.5475Z" fill="black"/>
<g opacity="0.75">
<path opacity="0.75" d="M29.3897 2.37207C28.9909 2.47056 28.5934 2.55944 28.1983 2.64952L27.02 2.95098C26.6309 3.05908 26.2441 3.17558 25.8574 3.28487C25.4707 3.39417 25.0911 3.52508 24.7092 3.65239C23.1968 4.15977 21.7198 4.76725 20.2881 5.47079C17.4506 6.86196 14.8226 8.64494 12.4813 10.7674C10.1413 12.8903 8.12136 15.3411 6.48442 18.0434C5.65678 19.4043 4.92865 20.8232 4.30571 22.2891L3.85411 23.4049L3.43976 24.5399C3.31966 24.9242 3.18753 25.3074 3.06022 25.6941C2.93291 26.0808 2.83322 26.4736 2.70831 26.8651C2.72753 26.4568 2.75755 26.0484 2.78758 25.6389C2.83562 25.2329 2.88728 24.8254 2.94253 24.4162C3.01099 24.0114 3.08905 23.6067 3.16472 23.2007C3.24039 22.7948 3.35568 22.3984 3.45177 21.9997C3.88084 20.394 4.46948 18.8353 5.2089 17.3468C6.70626 14.3464 8.75158 11.6526 11.2394 9.40424C13.7202 7.15354 16.5898 5.37301 19.708 4.14963C21.2535 3.54495 22.8523 3.08654 24.4834 2.78043L25.0947 2.67834L25.3998 2.6279L25.5523 2.60267L25.7061 2.58466L26.3198 2.5126C26.524 2.48978 26.727 2.46215 26.9323 2.44894C27.3431 2.42132 27.7527 2.39369 28.161 2.37567C28.5694 2.35766 28.9813 2.36727 29.3897 2.37207Z" fill="white"/>
</g>
<g opacity="0.75">
<path opacity="0.75" d="M55.2124 24.8906C55.1043 24.6108 55.007 24.3309 54.9097 24.0499C54.8124 23.7688 54.6971 23.4998 54.5962 23.2248L54.2648 22.414C54.1519 22.1462 54.0246 21.882 53.9141 21.6177C53.4383 20.5727 52.8988 19.5579 52.2986 18.5791C51.1182 16.646 49.6874 14.8776 48.0433 13.3197C46.3999 11.7652 44.5521 10.4422 42.5509 9.38743C41.5371 8.85296 40.4887 8.3871 39.4125 7.993L38.5922 7.70475L37.7587 7.44052C37.4776 7.36365 37.1954 7.28078 36.9107 7.20031C36.6261 7.11984 36.339 7.05498 36.0508 6.97331C36.3474 6.95049 36.6513 6.93728 36.9456 6.92407C37.2398 6.91085 37.5461 6.92407 37.844 6.93728C38.1418 6.95049 38.4445 6.98052 38.7435 7.00334C39.0426 7.02616 39.3441 7.0814 39.6407 7.12344C40.8403 7.31657 42.0162 7.63541 43.149 8.07468C45.4367 8.96774 47.529 10.2972 49.3092 11.9889C51.0907 13.6743 52.5371 15.6818 53.5717 17.9053C54.0821 19.0053 54.4824 20.1531 54.7668 21.3319L54.8629 21.7739L54.9109 21.9937C54.9277 22.0669 54.9421 22.1402 54.953 22.2147C54.9998 22.5125 55.055 22.8068 55.0923 23.1034C55.1295 23.4001 55.1571 23.704 55.1824 23.9958C55.2076 24.2877 55.2076 24.594 55.2124 24.8906Z" fill="white"/>
</g>
<path opacity="0.14" d="M62.5148 31.5012C62.5137 37.0983 60.9983 42.5909 58.129 47.3967C55.2598 52.2025 51.1437 56.1424 46.2171 58.7988C41.2905 61.4552 35.737 62.7291 30.1452 62.4855C24.5533 62.2419 19.1316 60.4899 14.4547 57.4151C17.672 58.3109 20.9786 58.8478 24.3141 59.0161C45.6316 61.1672 58.3651 47.1257 58.3651 29.9999C58.3651 19.1676 49.7752 7.63389 41.3594 2.08743C47.5227 4.1558 52.8805 8.10787 56.6765 13.3856C60.4724 18.6634 62.5146 25.0001 62.5148 31.5012Z" fill="black"/>
<path opacity="0.3" d="M29.3897 58.388C15.8659 57.928 5.03355 46.0664 5.03355 31.5012C5.03355 16.9361 15.8647 5.07806 29.3897 4.61446C16.8507 7.64471 7.57018 18.5335 7.57018 31.5012C7.57018 44.469 16.8519 55.3565 29.3897 58.388Z" fill="black"/>
<path opacity="0.1" d="M43.8648 23.5322C40.5504 24.6747 37.0537 25.1963 33.5502 25.0708C30.6698 25.0166 27.8124 24.5453 25.0671 23.6716C25.4352 25.6116 25.6185 27.5821 25.6148 29.5567C25.742 34.1738 24.6169 38.7391 22.3588 42.7683L20.741 41.8639C19.7184 41.2918 18.8668 40.4576 18.2738 39.447C17.6809 38.4365 17.3679 37.2861 17.3672 36.1145V28.0098C17.3678 26.8382 17.6805 25.688 18.2733 24.6774C18.8661 23.6669 19.7174 22.8326 20.7398 22.2603L28.2848 18.0446C29.2681 17.4995 30.3739 17.2135 31.4982 17.2135C32.6225 17.2135 33.7283 17.4995 34.7116 18.0446L42.2566 22.2603C42.8559 22.5975 43.3986 23.0267 43.8648 23.5322Z" fill="black"/>
<g opacity="0.23">
<path opacity="0.23" d="M59.6274 24.9098C59.9864 25.6976 60.2863 26.5109 60.5246 27.3432C60.7681 28.1786 60.9646 29.0271 61.1131 29.8846C61.8599 34.2825 61.4335 38.7995 59.877 42.9801C58.3206 47.1606 55.6892 50.8567 52.2482 53.6954C50.8894 54.8127 49.4135 55.7792 47.8463 56.578L47.5532 56.7245L47.2578 56.8662C47.0616 56.9615 46.8638 57.0524 46.6645 57.1389C46.2645 57.3106 45.8646 57.4812 45.4562 57.6277C44.6462 57.9337 43.8149 58.1797 42.9688 58.3639C43.6895 57.8835 44.3873 57.4031 45.0695 56.9047C45.7517 56.4062 46.4159 55.8958 47.0572 55.3661C48.3328 54.3247 49.5392 53.2014 50.6688 52.0032C55.1461 47.2799 58.1036 41.3221 59.159 34.9002C59.4324 33.2737 59.6053 31.632 59.6767 29.9843C59.7151 29.1519 59.7247 28.3136 59.7163 27.4693C59.7079 26.6249 59.6719 25.7722 59.6274 24.9098Z" fill="black"/>
</g>
<path fill-rule="evenodd" clip-rule="evenodd" d="M29.2612 36.6693C28.949 36.8387 27.7491 37.5269 27.7215 38.4889C27.6842 39.7849 29.7945 40.8526 31.5012 40.8682C33.1767 40.8838 35.2977 39.8942 35.2809 38.6283C35.2665 37.5377 33.6703 36.7666 33.4613 36.6681" fill="#D3A533"/>
<path d="M29.26 36.6693C29.1279 36.7494 29.0002 36.8375 28.8769 36.9336C28.7515 37.0254 28.6312 37.1241 28.5166 37.229C28.2902 37.4291 28.1029 37.6694 27.9641 37.9377C27.8989 38.0666 27.8551 38.2054 27.8344 38.3484C27.8172 38.4883 27.827 38.6302 27.8632 38.7664C27.9464 39.0419 28.1009 39.2905 28.3112 39.487C28.7517 39.8924 29.275 40.1973 29.8449 40.3806C30.4097 40.5848 31.0063 40.6869 31.6069 40.6821C32.2078 40.667 32.8019 40.5505 33.364 40.3374C33.6451 40.2348 33.9154 40.1048 34.1711 39.9494C34.423 39.7985 34.6493 39.6083 34.8413 39.3861C35.0299 39.1745 35.1398 38.9043 35.1524 38.6211C35.1443 38.331 35.0428 38.0512 34.8629 37.8235C34.6814 37.5799 34.4667 37.3629 34.2251 37.1786C34.105 37.0833 33.9802 36.9932 33.8504 36.9084C33.7219 36.8219 33.5898 36.7414 33.4541 36.6681C33.7442 36.7847 34.0225 36.9286 34.2852 37.0981C34.5541 37.2679 34.7969 37.4758 35.0059 37.7155C35.2294 37.9665 35.3652 38.2836 35.3926 38.6186C35.4002 38.7909 35.3728 38.9629 35.3121 39.1243C35.2537 39.282 35.1728 39.4305 35.0719 39.5651C34.9718 39.6955 34.8596 39.8161 34.7368 39.9254C34.6144 40.0323 34.4848 40.1306 34.3489 40.2196C34.0787 40.3949 33.7919 40.5429 33.4925 40.6616C33.1946 40.7789 32.8872 40.8705 32.5737 40.9355C32.2576 41.003 31.936 41.0407 31.6129 41.0484C30.644 41.0482 29.6932 40.7859 28.8613 40.2893C28.7232 40.2053 28.5901 40.1135 28.4625 40.0143C28.3343 39.913 28.2138 39.8022 28.1022 39.6828C27.9889 39.562 27.8898 39.4286 27.8067 39.2852C27.7214 39.1396 27.6605 38.981 27.6266 38.8156C27.617 38.7741 27.6106 38.732 27.6074 38.6895C27.6017 38.6473 27.5993 38.6048 27.6001 38.5622C27.6011 38.4776 27.6091 38.3932 27.6242 38.31C27.6576 38.1469 27.7181 37.9906 27.8031 37.8476C27.9716 37.5745 28.191 37.3364 28.4493 37.1462C28.7013 36.9582 28.9732 36.7983 29.26 36.6693Z" fill="black"/>
<path opacity="0.1" fill-rule="evenodd" clip-rule="evenodd" d="M32.0958 40.8454C31.931 40.8624 31.7654 40.8704 31.5997 40.8694C29.8942 40.8526 27.7828 39.7885 27.82 38.4901C27.8476 37.5293 29.0475 36.8399 29.3597 36.6705H30.2701C29.9579 36.8399 28.758 37.5281 28.7304 38.4901C28.6944 39.6828 30.4803 40.6809 32.0958 40.8454Z" fill="black"/>
<path fill-rule="evenodd" clip-rule="evenodd" d="M33.0157 34.6312L33.2559 34.0499L35.1836 29.1904C35.3746 28.6139 35.4274 28.0006 35.3378 27.4C35.2482 26.7994 35.0186 26.2282 34.6677 25.7326C34.3167 25.237 33.8542 24.8308 33.3174 24.5468C32.7806 24.2629 32.1845 24.1091 31.5773 24.0978C30.9701 24.0866 30.3688 24.2182 29.8219 24.4821C29.2749 24.746 28.7976 25.1348 28.4286 25.6171C28.0595 26.0994 27.809 26.6617 27.6972 27.2586C27.5855 27.8555 27.6155 28.4703 27.7851 29.0535L29.5158 33.9778L31.2946 38.9021L32.6566 35.5247" fill="#D3A533"/>
<path d="M32.9976 34.624C33.4673 33.4229 33.9273 32.229 34.3921 31.0316L35.0875 29.23C35.1933 28.933 35.2592 28.6232 35.2833 28.3088C35.2893 28.2307 35.2929 28.1515 35.2953 28.0686C35.2977 27.9857 35.2953 27.9113 35.2881 27.8284C35.2809 27.7455 35.2881 27.6711 35.2748 27.5882L35.2412 27.3552C35.2352 27.3168 35.2316 27.2771 35.2232 27.2351L35.1944 27.115L35.1379 26.8868L35.0599 26.6646L35.0202 26.5541C35.0082 26.5168 34.9878 26.4832 34.9722 26.446L34.8725 26.2334C34.8389 26.1625 34.7944 26.0977 34.7524 26.0292C34.6734 25.8942 34.5855 25.7646 34.4894 25.6413L34.4545 25.5932L34.4161 25.5488L34.338 25.4611C34.2852 25.4047 34.2371 25.341 34.1795 25.2882C34.0684 25.178 33.9505 25.0749 33.8264 24.9795C33.7639 24.9327 33.7063 24.8822 33.639 24.839L33.4408 24.7189C33.4072 24.6985 33.3748 24.6768 33.3412 24.6576L33.2367 24.606L33.0265 24.5015C32.4507 24.2568 31.8247 24.1538 31.2009 24.2012C30.5803 24.2573 29.9826 24.4633 29.4593 24.8017L29.272 24.9387L29.1783 25.0071L29.0906 25.084L28.9165 25.2377C28.8624 25.2918 28.8108 25.3506 28.7567 25.4071C28.6518 25.5211 28.5539 25.6414 28.4637 25.7674C28.4168 25.8286 28.3808 25.8971 28.3436 25.962C28.2993 26.0258 28.2592 26.0924 28.2235 26.1613C27.7832 26.9859 27.6703 27.9463 27.9076 28.8505C27.9172 28.8877 27.928 28.925 27.9376 28.9574C27.9472 28.9898 27.964 29.0319 27.9773 29.0691L28.0589 29.2961L28.2223 29.7489L28.8696 31.5613C29.7104 33.9838 30.5775 36.4051 31.3918 38.8408H31.178C31.4182 38.2835 31.6525 37.7239 31.8987 37.1678C32.1449 36.6117 32.3791 36.0544 32.6313 35.5007L32.6649 35.5139C32.4596 36.0856 32.2458 36.6537 32.0356 37.223C31.8254 37.7923 31.6068 38.358 31.3918 38.9261L31.2862 39.2048L31.1769 38.9225C30.7141 37.7215 30.2592 36.5204 29.8124 35.3194C29.3585 34.1183 28.9333 32.9028 28.5069 31.6898L27.8776 29.8666L27.7214 29.4102L27.6433 29.182C27.6301 29.1435 27.6169 29.1075 27.6049 29.0619C27.5929 29.0162 27.5821 28.9766 27.5725 28.9418C27.3301 27.9559 27.4687 26.9149 27.9604 26.0268C27.9995 25.9531 28.0428 25.8818 28.0902 25.813C28.137 25.7434 28.1766 25.6713 28.2283 25.6053C28.3269 25.4712 28.4336 25.3433 28.5478 25.2221C28.6054 25.1633 28.6619 25.102 28.7219 25.0432L28.9105 24.8798C28.9417 24.8534 28.9729 24.8246 29.0053 24.7993L29.1063 24.7273L29.3092 24.5832C29.8704 24.2239 30.5124 24.0102 31.177 23.9616C31.8416 23.9129 32.5078 24.0308 33.1153 24.3045L33.3364 24.4174L33.4468 24.4739C33.4829 24.4943 33.5165 24.5171 33.5513 24.5399L33.7591 24.6732C33.8264 24.7201 33.89 24.7741 33.9549 24.8246C34.0842 24.9269 34.2069 25.0372 34.3224 25.1549C34.3825 25.2113 34.4317 25.275 34.4869 25.3386L34.5674 25.4323L34.6071 25.4791L34.6431 25.5296C34.7425 25.6608 34.8332 25.7984 34.9145 25.9415C34.9542 26.0136 34.9998 26.0821 35.0347 26.1577L35.1367 26.3823C35.1713 26.4571 35.2005 26.5341 35.2244 26.6129L35.3025 26.8471L35.3577 27.0873L35.3853 27.2075C35.3938 27.2471 35.3962 27.2891 35.4022 27.3276L35.4322 27.5678C35.443 27.6494 35.4382 27.7311 35.4418 27.808C35.4454 27.8849 35.4478 27.9713 35.4418 28.0482C35.4358 28.1251 35.4334 28.2115 35.425 28.2884C35.3942 28.6146 35.3203 28.9353 35.2052 29.242L34.4846 31.028C34.0041 32.2182 33.5237 33.4109 33.0289 34.5975L32.9976 34.624Z" fill="black"/>
<path opacity="0.1" d="M30.8274 26.3535C30.0989 26.6912 29.4999 27.2565 29.1206 27.9642C28.7413 28.672 28.6022 29.4837 28.7244 30.2774C28.3493 29.8438 28.08 29.3291 27.9378 28.7738C27.7956 28.2184 27.7843 27.6376 27.9048 27.0772C28.0253 26.5167 28.2744 25.9919 28.6323 25.5441C28.9903 25.0963 29.4473 24.7378 29.9675 24.4968C30.4876 24.2558 31.0566 24.1389 31.6297 24.1553C32.2027 24.1717 32.7641 24.321 33.2696 24.5914C33.7751 24.8617 34.2109 25.2458 34.5426 25.7134C34.8743 26.1809 35.093 26.7191 35.1812 27.2855C34.6546 26.6792 33.9453 26.2605 33.16 26.0923C32.3747 25.9242 31.5561 26.0159 30.8274 26.3535Z" fill="black"/>
<path opacity="0.25" d="M12.4957 27.9749C10.4119 25.1813 13.447 19.6408 16.4316 16.6706C17.4429 15.6641 21.6526 11.4725 25.9127 12.8369C28.0914 13.5347 30.2785 15.6822 30.0275 17.5486C29.7741 19.4342 27.2651 19.3141 23.8289 22.151C19.5123 25.7145 19.5123 29.1748 16.5025 29.5591C15.7553 29.6525 14.9967 29.5564 14.2965 29.2795C13.5962 29.0027 12.977 28.554 12.4957 27.9749Z" fill="white"/>
</g>
<defs>
<linearGradient id="paint0_linear_10_73" x1="4.64235" y1="15.9926" x2="58.3599" y2="47.0074" gradientUnits="userSpaceOnUse">
<stop stop-color="#FACD1E"/>
<stop offset="0.197" stop-color="#FACD1F"/>
<stop offset="0.267" stop-color="#FACE26"/>
<stop offset="0.318" stop-color="#FAD032"/>
<stop offset="0.359" stop-color="#FBD343"/>
<stop offset="0.394" stop-color="#FCD759"/>
<stop offset="0.425" stop-color="#FDDB74"/>
<stop offset="0.452" stop-color="#FEE194"/>
<stop offset="0.468" stop-color="#FFE5AA"/>
<stop offset="0.486" stop-color="#FEE194"/>
<stop offset="0.517" stop-color="#FDDB74"/>
<stop offset="0.552" stop-color="#FCD759"/>
<stop offset="0.592" stop-color="#FBD343"/>
<stop offset="0.638" stop-color="#FAD032"/>
<stop offset="0.696" stop-color="#FACE26"/>
<stop offset="0.776" stop-color="#FACD1F"/>
<stop offset="1" stop-color="#FACD1E"/>
</linearGradient>
<linearGradient id="paint1_linear_10_73" x1="20.0239" y1="21.8777" x2="43.8482" y2="39.971" gradientUnits="userSpaceOnUse">
<stop stop-color="#E2B734"/>
<stop offset="0.203" stop-color="#E2B735"/>
<stop offset="0.277" stop-color="#E4BA3C"/>
<stop offset="0.329" stop-color="#E7BE48"/>
<stop offset="0.371" stop-color="#EBC559"/>
<stop offset="0.407" stop-color="#F0CE6F"/>
<stop offset="0.439" stop-color="#F7D889"/>
<stop offset="0.467" stop-color="#FEE4A9"/>
<stop offset="0.468" stop-color="#FEE4A9"/>
<stop offset="0.5" stop-color="#F7D889"/>
<stop offset="0.536" stop-color="#F0CE6F"/>
<stop offset="0.577" stop-color="#EBC559"/>
<stop offset="0.625" stop-color="#E7BE48"/>
<stop offset="0.685" stop-color="#E4BA3C"/>
<stop offset="0.768" stop-color="#E2B735"/>
<stop offset="1" stop-color="#E2B734"/>
</linearGradient>
<clipPath id="clip0_10_73">
<rect width="63" height="63" fill="white"/>
</clipPath>
</defs>
</svg>
